/* XPM */
static char * bitcoin64_xpm[] = {
"64 64 37 1",
" 	c None",
".	c #12122B",
"+	c #FFFFFF",
"@	c #4D4D60",
"#	c #F0F0F1",
"$	c #C3C3CA",
"%	c #6A6A7A",
"&	c #3E3E52",
"*	c #888895",
"=	c #A6A6AF",
"-	c #202038",
";	c #D2D2D7",
">	c #E1E1E4",
",	c #5C5C6D",
"'	c #2F2F45",
")	c #797987",
"!	c #9797A2",
"~	c #B4B4BC",
"{	c #F1F1F3",
"]	c #303046",
"^	c #E2E2E5",
"/	c #A7A7B0",
"(	c #212138",
"_	c #898995",
":	c #B6B6BD",
"<	c #5C5C6E",
"[	c #C4C4CB",
"}	c #7A7A88",
"|	c #3F3F53",
"1	c #9898A3",
"2	c #6B6B7B",
"3	c #D3D3D8",
"4	c #888894",
"5	c #E1E1E5",
"6	c #A6A6B0",
"7	c #5B5B6D",
"8	c #FFFFFF",
"                       31<|.....+....(@_:                       ",
"                    ^}].+.......+.......+.</                    ",
"                  :@....+-......+......&#...(_{                 ",
"                []......;,......+......%~.....(_{               ",
"              ^@!*......)$......+......>%......=!:              ",
"             /(.&#@.....-#,.....+.....)>......,#-.<{            ",
"           {2....)$......,#&....+....%+&......>%...]3           ",
"          {|......#&......%+)...+..-*#%......&>.....(/          ",
"         ^|.......=).......&;>!,+%!#$&.......*!......./         ",
"        {(#%......**.........&*$+$*&.........**......&>/        ",
"       {|.%+,.....**............+............**.....&#%./       ",
"       @...%#&....=*............+............*!....&#%..(3      ",
"      }.....%#&...>&............+............,>...&#%....]{     ",
"     [.......%#&.@>.............+.............>@.&#%......<     ",
"    {]........%#@>%.............+.............)>@#%........:    ",
"    _*-........)+~..............+..............~+)........-4{   ",
"   ^.=>@......@>$#&.............+.............&#$>@......%#=_   ",
"   2..)#;*%%*;#).%#&............+............&#%.)>>!**!>>,.({  ",
"  ^.....,*~~*,....%#&...........+...........%+%....,****&...._  ",
"  _................%#&..........+..........%+%...............(  ",
"  ].................%#&.........+.........%+%.................: ",
" :...................%#&........+........%+%..................< ",
" }....................!#&.......+.......%+%.................... ",
" 4~*&..................=#&......+......%+%.................&*$$:",
"^')=#$&.................=#'.....+.....%+%................-~#=,@_",
":....*+%.................=;-..&)+)&..%+%................&#=-...@",
"_.....&#,.................=;@$#=+=#$*+%................-#%.....(",
"<......,#-.................~+!-.+..$+*.................=~.......",
"@.......$*.................;>;-.+.%#!>................'#-.......",
"@.......,>................,>.=;-+%#&.>%...............)=........",
".........+................!*..=;+#&..*=...............~%........",
"%$$$$$$$$+;$$$$$$$$$$$$$$$#;$$$++>$$$;#$$$$$$$$$$$$$$$#;$$$$$$$$",
"'@@@@@@@@+%@@@@@@@@@@@@@@@$!@@=#+#,@@!$@@@@@@@@@@@@@@@;)@@@@@@@@",
"].......-+................)~.%#&+=;-.=)...............!*........",
"@.......%$................'#*#&.+.=;@+'...............,>........",
"@.......>%.................=+%..+..~+).................>%.......",
"}......*;.................%#!#!@+@!#>;-................,#'......",
"1.....)#&................%#&.'=;+;='-;;-................=>&....|",
"[...@$>&................%#&.....+....-;$.................*+*'..<",
" @$>#*-................%#&......+.....-;=.................'=#>$1",
" _,&..................%#&.......+......-;=...................&@3",
" 1...................%#&........+.......-;=...................] ",
" ^..................%#&.........+........-;=..................} ",
"  @................%#&..........+.........-;=.................^ ",
"  /......@@@-.....%#&...........+..........-;=...............@  ",
"   ]..@~+;$$+;%..%#&............+...........-;=...'*$$$$*'...:  ",
"   /.=#*-....%>$)#&.............+............-;=-=#=,@@,=#!-]   ",
"    );-........$+@..............+.............-;#~-......'~;[   ",
"    [.........%#~$..............+.............-;#=.........6    ",
"     <.......%#&->@.............+.............*$-;=.......(^    ",
"     {(.....%#&..)~.............+.............#@.&#=....../     ",
"      [....%#&...'+.............+............,;...&#=....2      ",
"       /..%#&.....#'............+............*!....&#*..|{      ",
"        2,#&......;@...........-+-...........**.....&#%|{       ",
"         }'.......+.........'=#+++#=@........**......&;^        ",
"          2......&>........*+!&.+.'*#=-......%~......|{         ",
"           /.....=!.......=;&...+...-$;-.....'+-....@{          ",
"            [(..&#'......*;-....+.....$=......$*...}            ",
"             {<.#%......'#&.....+.....-#@.....'#@][             ",
"               [7.......)=......+......*=......%5{              ",
"                 /].....$,......+......&#.....2^                ",
"                   /@...+'......+.......+..]_^                  ",
"                     ^1@*.......+.......=}:                     ",
"                         [1}@@].*.@@<_:^                        "};
