/* XPM */
static char * bitcoin32_xpm[] = {
"32 32 30 1",
" 	c None",
".	c #12122B",
"+	c #4D4D60",
"@	c #3E3E52",
"#	c #202038",
"$	c #2F2F45",
"%	c #797987",
"&	c #898995",
"*	c #212138",
"=	c #F1F1F3",
"-	c #D3D3D8",
";	c #9797A2",
">	c #E2E2E5",
",	c #A7A7B0",
"'	c #6B6B7B",
")	c #5C5C6D",
"!	c #303046",
"~	c #7A7A88",
"{	c #9898A3",
"]	c #C4C4CB",
"^	c #6A6A7A",
"/	c #3F3F53",
"(	c #3E3E53",
"_	c #B6B6BD",
":	c #C4C4CA",
"<	c #6B6B7A",
"[	c #F1F1F2",
"}	c #5C5C6E",
"|	c #FFFFFF",
"1	c #FFFFFF",
"          >&<...+..!&,          ",
"        ]+..+...+...+.*&=       ",
"      =}@#..+...+..$$..$(_      ",
"     -!..+...+#.+.$@...+..~     ",
"    -(...+....@+%+$....+...;    ",
"   -*$$..+......+......+..+.'   ",
"  =/..$$.+......+......+.+...,  ",
"  ;....$)#......+......@+....*[ ",
" >#+@.$++$......+......+@+$.++' ",
" '..#+$..$$.....+.....+...$+...>",
" *........@#....+....+.........{",
":$.........@#...+...+.........$)",
"&#+@........@#..+..+........#+$.",
"+..#@........@++%+^.........+...",
"+...+........@+#++$$.......+....",
"~+++%++++++++%+%;++%+++++++%++++",
"+...+........+.+^#.+.......+....",
"+...+........$).+@+#.......@#...",
"+..#@........+@+%++#........+...",
"&$+@........+...+..@#........++$",
"]$.........+....+...@#.........+",
" *........+.....+....@#........{",
" &.#+++..+......+.....@#..@+#.*=",
" =+@...+^.......+......@++#.@+& ",
"  &....+@#......+......@)....*| ",
"   /..+..+......+......+.+..._  ",
"   =*+...+......+......+..+.&   ",
"    -$...+....++%+@....+...;    ",
"     >/.#@...+..+.#+...+..{     ",
"       ~@...+...+..#@..$+]      ",
"        >'..+...+...+.!,        ",
"          =,~!..+..+;-          "};
