/* XPM */
static char * bitcoin128_xpm[] = {
"128 128 37 1",
" 	c None",
".	c #12122B",
"+	c #FFFFFF",
"@	c #888895",
"#	c #F0F0F1",
"$	c #202038",
"%	c #D2D2D7",
"&	c #A6A6AF",
"*	c #3E3E52",
"=	c #6A6A7A",
"-	c #4D4D60",
";	c #C3C3CA",
">	c #E1E1E4",
",	c #212138",
"'	c #2F2F45",
")	c #5C5C6D",
"!	c #E2E2E5",
"~	c #797987",
"{	c #898995",
"]	c #B4B4BC",
"^	c #9797A2",
"/	c #F1F1F3",
"(	c #9898A3",
"_	c #3F3F53",
":	c #D3D3D8",
"<	c #303046",
"[	c #7A7A88",
"}	c #B6B6BD",
"|	c #C4C4CB",
"1	c #A7A7B0",
"2	c #5C5C6E",
"3	c #C4C4CA",
"4	c #F0F0F2",
"5	c #B5B5BC",
"6	c #A6A6B0",
"7	c #888894",
"8	c #FFFFFF",
"                                                    !|{[--,...@+@....,--[{|!                                                    ",
"                                              ++!{-,..........@+@...........,-6++                                               ",
"                                            !(&+@.............@+@.............@+@-(!                                            ",
"                                         !(_..@+@.............@+@.............&+~..._(!                                         ",
"                                       }2.....~+].............@+@.............;+-......2}                                       ",
"                                    /(<.......-+>.............@+@.............++'........<(/                                    ",
"                                  /{,..........++'............@+@............)+>...........,{/                                  ",
"                                +{,............]+^............@+@............&+^.............,3/                                ",
"                               !+^.............)+#$...........@+@...........'++*.............&+7}                               ",
"                             !-)++=.............>+@...........@+@...........&+;.............~++-.-!                             ",
"                            {...@+#'............)++*..........@+@..........-++-............*++~....{                            ",
"                          !_.....%+&.............;+%$.........@+@.........$#+^.............;+]......_!                          ",
"                         1,......*++'............$#+%$........@+@........$%+%$............-++'.......,1                         ",
"                        [.........&+&.............*#+%$.......@+@.......*%+#'.............&+&..........[                        ",
"                      /_..........-+#..............*#+#)......@+@......~#+>*..............++*..........._/                      ",
"                     :<............#+*..............*%++;-....@+@....=%++;$..............-+>.............<:                     ",
"                    :,.............&+~................@+++>^)*@+@*)&#++#~................@+^..............,:                    ",
"                   +-..............@+^.................'^#+++++++++++#@$.................&+~..............$-:                   ",
"                  3##*.............-+;....................)^;#+++>;@-....................;+-.............$%#*1                  ",
"                 :$%+#*............-+;........................@+@........................;+-............$%+#*.:                 ",
"                :,.$%+#*...........-+;........................@+@........................;+-...........$%+#*..,:                ",
"               :,...$%+#*..........~+]........................@+@........................;+=..........$%+#*....,:               ",
"              /<.....$%+#*.........@+@........................@+@........................@+@.........$%+#*......</              ",
"              _.......$%+#*........%+)........................@+@........................)+%........$%+#*........_              ",
"             [.........$%+#*......$++$........................@+@........................$++$......$%+#*..........[             ",
"            1...........$%+#*.....~+%.........................@+@.........................;+@.....$%+#*............1            ",
"           !,............$%+#$....>+=.........................@+@.........................=+>$...$%+#*.............,!           ",
"           _..............$%+%$..@+>..........................@+@..........................>+@..$%+#*..............._           ",
"          {................$%+%$*++=..........................@+@..........................)++*$%+#*.................{          ",
"         !..................'#+%>+;...........................@+@...........................]+#%+#*...................!         ",
"         5=..................*#++>$...........................@+@...........................$%++#*..................==-         ",
"        4++~.................*%++%$...........................@+@...........................$%++#*.................&++*}        ",
"       /<&++;'..............@++>#+%$..........................@+@..........................$%+%%++@$.............-%++@.</       ",
"       {..~#++&*.........$~>++;$*#+%$.........................@+@.........................$%+%$$]++#@'.........);++#)...{       ",
"      /,...';+++>&~---=@;+++>=...*#+%$........................@+@........................*%+%$...->+++%&@)-~@;#+++&$....,/      ",
"      {......*&#++++++++++%=......*#+%$.......................@+@.......................*#+%$......)]++++++++++>@'.......{      ",
"     /,.........-@&;;;;@='.........*#+%$......................@+@......................*#+%$..........-@@;;&@=*..........,/     ",
"     (..............................*#+%$.....................@+@.....................*#+%$...............................(     ",
"     <...............................*#+%$....................@+@....................*#+%$................................<     ",
"    }.................................*#+%$...................@+@...................*#+%$..................................}    ",
"    2..................................*#+;...................@+@..................*#+%$...................................2    ",
"   !....................................*#+&..................@+@.................*#+%$.....................................!   ",
"   (.....................................*#+&.................@+@................*#+%$......................................(   ",
"   _......................................)++&................@+@...............*#+%$......................................._   ",
"  !........................................=++&...............@+@..............*#+%$.........................................!  ",
"  (.........................................=++&..............@+@.............*#+%$.......................................'-.(  ",
" ++>;^=$.....................................=++&.............@+@............*#+%$....................................)&>+++.-  ",
" +++++++&-....................................=++&............@+@...........*#+%$..................................$@#++++#;..  ",
" |.-)@%+++]'...................................=++&...........@+@..........*#+%$..................................)#++>^-.....| ",
" {.....'&++#=...................................=++&..........@+@.........*#+%$.................................$&++>=........{ ",
" -.......*%++@...................................=++&.......-~;+;@-......*#+%$.................................$%++@..........- ",
" ,.........^++@...................................=++&...$@#+++++++#&'..*#+%$.................................$%+#-..........., ",
"!...........=++=...................................=++&.~#++#];+;&>+++@*#+%$..................................&+#*.............!",
"|............^+#'...................................=++>++;)..@+@..-;++++%$..................................)++-..............|",
"{.............;+;....................................=+++~....@+@....@+++'..................................$>+@...............{",
"[.............'++-...................................@+++=....@+@...*#+++^..................................@+>................[",
"-..............&+]..................................'++&++=...@+@..*#+%)++-.................................>+=................-",
"-..............'++'.................................&+;.^++=..@+@.*#+%$.^+;................................-+#.................-",
",...............%+=................................$++'..&++=.@+@*#+%$..$++*...............................^+&.................,",
"................@+&................................=+%....&++=@+]#+%$....&+@...............................;+)..................",
"................-+;................................&+@.....&++%+++%$.....=+;...............................#+'..................",
"................$++................................;+-......&++++%$......-+>...............................++...................",
"++++++++++++++++++++++++++++++++++++++++++++++++++++++++++++++++++++++++++++++++++++++++++++++++++++++++++++++++++++++++++++++..",
"++++++++++++++++++++++++++++++++++++++++++++++++++++++++++++++++++++++++++++++++++++++++++++++++++++++++++++++++++++++++++++++..",
"................$++................................;+=.....*#+++++=......-+;...............................++...................",
"................-+%................................@+&....*#+%^+#++=.....~+&...............................>+*..................",
"................~+]................................-+#...*#+%$@+@&++=....%+=...............................]+~..................",
"................]+~.................................>+=.*#+%$.@+@.&++=..-+#$...............................~+]..................",
"...............$++'.................................@+#-#+]$..@+@..&+#*$%+^................................'++'.................",
",..............@+%...................................%+++&....@+@...&+#]+#$.................................;+@................,",
"-.............$#+=...................................~++#$....@+@....&+++)..................................-+#'...............-",
"-.............]+%...................................=++++>-...@+@...*%++#*...................................;+;...............-",
"[............=++-..................................=++&*#++;=$@+@$)]++#%+#*..................................'#+^..............[",
"{...........=++@..................................=++&..$&+++++++++++&'$%+#*..................................=++=.............{",
"|..........=++&..................................=++&.....'~;+++++%^'...$%+#*..................................^++&............|",
"!........$&++&..................................=++&..........@+@........$%+#*..................................@++%*..........!",
" ,.....$=#++@..................................=++&...........@+@.........$%+#*..................................)#++&*......., ",
" -..')&#++>-..................................=++&............@+@..........$%+#*..................................'&+++>^=--..- ",
" 3++++++>=...................................=++&.............@+@...........$%+#*...................................*&#+++++..{ ",
" ++++;@*....................................=++&..............@+@............$%+#*.....................................)@;;;..| ",
"  .........................................=++&...............@+@.............$%+#*...........................................  ",
"  -.......................................=++&................@+@..............$%+#*.........................................-  ",
"  (......................................=++&.................@+@...............$%+%$........................................(  ",
"  !.....................................=++&..................@+@................$%+%$.......................................!  ",
"   _...................................=++&...................@+@.................$%+%$....................................._   ",
"   (..................................=++&....................@+@..................*#+%$....................................(   ",
"   !.................................=++&.....................@+@...................*#+%$...................................!   ",
"    2...............................=++&......................@+@....................*#+%$.................................2    ",
"    }.............----.............=++&.......................@+@.....................*#+%$................................}    ",
"     <.......$=]#++++++>&)........=++&........................@+@......................*#+%$...........-)@@~-*............<     ",
"     (.....'&#++++%;;>++++#@$....=++&.........................@+@.......................*#+%$......$~;++++++++#]).........(     ",
"     /,...~#++%~*......-^>++#)..=++&..........................@+@........................*#+%$...$^#+++>;^@&;#+++>=......,/     ",
"      {.$;++;-............=>++&=++&...........................@+@.........................*#+%$.)#++%='.......*^>++%*....{      ",
"      /,%+#~................@++++&............................@+@..........................*#+%&++%-.............~#+#=..,/      ",
"       {&#*..................&++>.............................@+@...........................*#+++@................$;++).{       ",
"       /<'..................=++++@............................@+@............................]++>$..................&%$</       ",
"        }..................=++&=++-...........................@+@...........................~++#+&.....................}        ",
"         -................=++&..]+%...........................@+@..........................'#+~*#+&...................-         ",
"         !...............=++&...$#+=..........................@+@..........................&+;..*#+&..................!         ",
"          {.............=++&.....@+;..........................@+@.........................'++'...=++&................{          ",
"           _...........=++&......$++'.........................@+@.........................&+&.....=++&.............._           ",
"           !,.........=++&........]+=.........................@+@.........................#+-......=++&............,!           ",
"            1........=++&.........@+&.........................@+@........................*+#........=++&...........1            ",
"             [......=++&..........-+;.........................@+@........................~+].........=++&.........[             ",
"              _....=++&...........*+>.........................@+@........................@+@..........=++&......._              ",
"              /<..=++^.............++.........................@+@........................]+=...........=++&.....</              ",
"               :,'++=.............$++.........................@+@........................;+-............=++&...,:               ",
"                :,==..............-+%.....................)^;+++++>]~'...................]+=.............=++-.,:                ",
"                 :................)+;..................$@#++++++++++++]-.................@+@..............==..:                 ",
"                  1...............^+@.................~#++>^)'@+@.-~%+++]$...............~+&.................1                  ",
"                   :,.............>+)...............$;++%)....@+@....'&++#-..............-+>...............,:                   ",
"                    :,...........-+#...............$%+#~......@+@......*%++=..............#+*.............,:                    ",
"                     :<..........;+&..............$%+#*.......@+@.......$&++=.............&+&............<:                     ",
"                      /_........-++'..............%+>$........@+@.........&++*............-++'.........._/                      ",
"                        [......$>+^..............@+#*.........@+@..........]+>$............;+].........[                        ",
"                         1,....]+>$.............'++)..........@+@..........$>+@............*++)......,1                         ",
"                          !_..=++*..............&+;...........@+@...........)+#$............^+#*...._!                          ",
"                            {..&=..............'++*...........@+@............;+@.............;+=...{                            ",
"                             !-................~+;............@+@............=+>.............$)..-!                             ",
"                               }<..............;+=............@+@.............++'..............<}                               ",
"                                /{,............++'............@+@.............;+=............,{/                                ",
"                                  /{,.........*+#.............@+@.............@+@..........,{/                                  ",
"                                    /(<.......-+;.............@+@.............=+;........<(/                                    ",
"                                       }2.....-+;.............@+@.............-+;......2}                                       ",
"                                         !(_..................@+@..................._(!                                         ",
"                                            !(-...............@+@................-(!                                            ",
"                                                |{-,........................,-{|                                                ",
"                                                    !|{[--,..........,--[{|!                                                    "};
