/* XPM */
static char * bitcoin16_xpm[] = {
"16 16 16 1",
" 	c None",
".	c #12122B",
"+	c #4D4D60",
"@	c #202038",
"#	c #3E3E52",
"$	c #797987",
"%	c #A7A7B0",
"&	c #E2E2E5",
"*	c #3F3F53",
"=	c #5C5C6D",
"-	c #888895",
";	c #6B6B7A",
">	c #9797A2",
",	c #7A7A88",
"'	c #797988",
")	c #FFFFFF",
"    %++.+.'%    ",
"  &*+.=.++.+*&  ",
" &=.+..+$@.+.+& ",
" +.++...+..++.+ ",
"%++++...+..++++%",
"=....+..+@+....;",
"@+@...++-+...@+@",
"++$+++$$>$+++$++",
"..+...+#-+...+..",
"@+@..@#+$+...@+@",
"=...@#..+.+....;",
"%+++#...+.@#+++%",
" *@#+...+..+#.+ ",
" &+.+..+$@.+@+& ",
"  &*+.=.++.+*&  ",
"    %+#.+.,%    "};
